<svg width="154" height="236" viewBox="0 0 154 236" fill="none" xmlns="http://www.w3.org/2000/svg">
<g id="Frame" clip-path="url(#clip0_400_3)">
<path id="Vector" d="M69.5121 181.714C67.526 181.714 65.871 181.163 64.547 180.059C63.2229 178.735 62.5609 176.97 62.5609 174.763C62.5609 172.556 62.5609 170.35 62.5609 168.143C62.5609 165.936 62.5609 163.729 62.5609 161.523C63.0022 152.034 65.0986 143.648 68.8501 136.366C72.6015 129.084 77.1253 122.464 82.4215 116.505C87.9383 110.547 93.4552 104.92 98.972 99.6234C104.489 94.1065 109.123 88.5897 112.874 83.0729C116.846 77.556 119.274 71.7082 120.156 65.5293C121.039 57.5851 119.494 50.9649 115.522 45.6687C111.55 40.1519 106.144 35.9591 99.303 33.0904C92.4621 30.2216 85.4006 28.7872 78.1184 28.7872C66.4227 28.7872 56.382 31.8766 47.9965 38.0555C39.8315 44.0137 34.425 54.1647 31.777 68.5084C31.1149 71.1565 30.0116 73.0322 28.4669 74.1356C26.9221 75.239 25.1568 75.7906 23.1707 75.7906H7.28222C5.29616 75.7906 3.53077 75.1286 1.98606 73.8046C0.66202 72.4805 0 70.7152 0 68.5084C0.220674 59.4608 2.20673 50.8546 5.95818 42.6896C9.70963 34.5247 15.0058 27.3528 21.8467 21.174C28.9082 14.9951 37.1835 10.1403 46.6724 6.6096C56.382 2.85815 67.195 0.982422 79.1114 0.982422C92.5725 0.982422 104.047 2.85815 113.536 6.6096C123.246 10.1403 130.969 14.9951 136.707 21.174C142.665 27.1322 146.968 33.7524 149.616 41.0346C152.264 48.3168 153.368 55.599 152.926 62.8813C152.264 71.7082 150.058 79.6524 146.306 86.714C142.555 93.5549 138.031 99.9544 132.735 105.913C127.439 111.651 122.032 117.388 116.515 123.126C111.219 128.642 106.585 134.49 102.613 140.669C98.8617 146.627 96.7653 153.137 96.3239 160.199C96.1032 162.626 95.8826 165.054 95.6619 167.481C95.6619 169.688 95.6619 171.894 95.6619 174.101C95.2206 176.529 94.3379 178.404 93.0138 179.728C91.6898 181.052 89.8141 181.714 87.3866 181.714H69.5121ZM66.864 236C64.6573 236 62.7816 235.338 61.2369 234.014C59.9128 232.469 59.2508 230.594 59.2508 228.387V208.195C59.2508 205.988 59.9128 204.223 61.2369 202.899C62.7816 201.354 64.6573 200.582 66.864 200.582H88.3797C90.8071 200.582 92.6828 201.354 94.0068 202.899C95.5516 204.223 96.3239 205.988 96.3239 208.195V228.387C96.3239 230.594 95.5516 232.469 94.0068 234.014C92.6828 235.338 90.8071 236 88.3797 236H66.864Z" fill="#19223F" fill-opacity="0.15"/>
</g>
<defs>
<clipPath id="clip0_400_3">
<rect width="154" height="236" fill="white"/>
</clipPath>
</defs>
</svg>
