<svg width="38" height="194" viewBox="0 0 38 194" fill="none" xmlns="http://www.w3.org/2000/svg">
<g id="Group">
<path id="Vector" d="M18.6568 32.3033L27.9664 16.1517L37.2759 2.57424e-05H18.6568H0L9.30977 16.1517L18.6568 32.3033Z" fill="#EE8434"/>
<path id="Vector_2" d="M18.6568 64.6065L27.9664 48.4549L37.2759 32.3032H18.6568H0L9.30977 48.4549L18.6568 64.6065Z" fill="#EE8434"/>
<path id="Vector_3" d="M18.6568 96.9098L27.9664 80.7582L37.2759 64.6065H18.6568H0L9.30977 80.7582L18.6568 96.9098Z" fill="#EE8434"/>
<path id="Vector_4" d="M18.6568 129.213L27.9664 113.061L37.2759 96.9098H18.6568H0L9.30977 113.061L18.6568 129.213Z" fill="#EE8434"/>
<path id="Vector_5" d="M18.6568 161.516L27.9664 145.365L37.2759 129.213H18.6568H0L9.30977 145.365L18.6568 161.516Z" fill="#EE8434"/>
<path id="Vector_6" d="M18.6568 193.82L27.9664 177.668L37.2759 161.516H18.6568H0L9.30977 177.668L18.6568 193.82Z" fill="#EE8434"/>
</g>
</svg>
