<svg width="87" height="72" viewBox="0 0 87 72" fill="none" xmlns="http://www.w3.org/2000/svg">
<g id="Group">
<g id="Group_2">
<g id="Group_3">
<path id="Vector" d="M0.234497 9.41364C5.14193 4.70651 11.5208 1.63263 18.2156 0.500141C24.9489 -0.632344 31.9518 0.13805 38.1689 3.01934C44.1857 5.80818 49.2626 10.4999 52.7679 16.1084C54.5244 18.9126 55.888 21.9788 56.7817 25.1683C57.6831 28.3808 58.153 31.8014 57.9296 35.1372C57.6985 38.5732 56.6662 42.1401 54.1007 44.5823C51.3812 47.1554 47.691 48.7039 44.0008 49.1739C40.2644 49.6438 36.3277 49.2817 32.8378 47.8257C31.2893 47.1785 29.8024 46.3619 28.6006 45.1832C27.5297 44.1355 26.6437 42.8643 25.9889 41.5161C24.7563 38.9892 24.0398 35.6996 25.5498 33.1265C26.3279 31.8014 27.6684 30.7999 28.9395 29.9756C30.4187 29.0203 32.0443 28.2422 33.7237 27.7337C35.3801 27.2329 37.1674 27.0943 38.8854 26.9864C40.796 26.8709 42.7066 26.8863 44.6171 27.0249C48.4306 27.31 52.2133 28.0727 55.8341 29.313C59.3703 30.5225 62.8679 32.1481 65.9186 34.3206C68.8616 36.4084 71.3268 39.074 73.3222 42.0708C77.7674 48.7347 79.624 56.6776 80.5177 64.5356C80.7488 66.5695 80.9183 68.6033 81.057 70.6449C81.0878 71.0609 80.6795 71.4153 80.2866 71.4153C79.8474 71.4153 79.547 71.0609 79.5162 70.6449C78.9769 62.8099 78.0139 54.7593 74.6472 47.5714C73.2066 44.4976 71.3653 41.6009 69.0541 39.1125C66.6813 36.5625 63.8617 34.6288 60.7647 33.0572C54.2933 29.7676 46.9283 28.1805 39.6789 28.4887C38.0148 28.558 36.2814 28.6582 34.6636 29.0742C33.1228 29.4748 31.6513 30.145 30.2877 30.954C29.1013 31.6627 27.7377 32.5795 26.9981 33.7197C26.3433 34.7212 26.1815 35.8845 26.2662 37.094C26.4665 39.7442 27.9226 42.456 29.864 44.2664C30.9734 45.3065 32.4217 46.0461 33.8547 46.5853C35.5341 47.2171 37.306 47.6023 39.0857 47.7486C42.6064 48.0414 46.2041 47.5637 49.3859 45.969C50.919 45.2063 52.3981 44.2202 53.546 42.9414C54.5784 41.7858 55.2794 40.3682 55.7262 38.8891C56.6507 35.8152 56.5891 32.4716 56.1038 29.3207C55.6261 26.2237 54.6862 23.1884 53.3303 20.3533C50.6417 14.714 46.4122 9.79884 41.1426 6.42449C35.719 2.95 29.3401 1.32446 22.915 1.56328C16.513 1.80211 10.188 3.87448 4.93393 7.54157C3.65507 8.43523 2.45326 9.42904 1.32848 10.5076C0.604309 11.1856 -0.481972 10.0993 0.234497 9.41364Z" fill="#19223F"/>
</g>
</g>
<g id="Group_4">
<g id="Group_5">
<path id="Vector_2" d="M86.4577 67.2089C86.3576 67.2397 86.2651 67.2782 86.1649 67.3167C86.2266 67.2936 86.2882 67.2628 86.3498 67.2397C85.7104 67.517 85.1403 67.933 84.5779 68.3336C83.9847 68.7497 83.3992 69.1734 82.8137 69.6048C82.4824 69.8513 82.1512 70.1056 81.8199 70.3598C81.8738 70.3213 81.9201 70.2827 81.974 70.2365C81.5888 70.5293 81.219 70.8451 80.8261 71.1302C80.3485 71.4846 79.6859 71.5385 79.1851 71.1918C78.8308 70.9453 78.5457 70.6063 78.2299 70.3058C77.9448 70.0285 77.6521 69.7589 77.3516 69.5046C77.0126 69.2119 76.666 68.9268 76.3193 68.6572C76.3732 68.6957 76.4194 68.7342 76.4734 68.7805C75.5181 68.0409 74.5088 67.386 73.4457 66.8082C73.1452 66.6465 72.8371 66.4847 72.5212 66.3306C72.3517 66.2536 72.2131 66.0456 72.1668 65.8684C72.1129 65.6835 72.136 65.4369 72.2439 65.2752C72.3517 65.1134 72.5058 64.967 72.7061 64.9208C72.9141 64.8745 73.1067 64.9054 73.2993 64.9978C75.2869 65.9685 77.1282 67.2243 78.7614 68.7034C78.9848 68.9037 79.2005 69.1117 79.4163 69.3197C79.6243 69.5278 79.8246 69.7589 80.0557 69.9438C80.0018 69.9052 79.9556 69.8667 79.9016 69.8205C79.9633 69.8667 80.0249 69.9052 80.1019 69.9438C80.0403 69.9207 79.9786 69.8898 79.917 69.8667C79.9709 69.8898 80.0249 69.9053 80.0788 69.913C80.0095 69.9053 79.9402 69.8975 79.8708 69.8821C79.917 69.8898 79.971 69.8898 80.0172 69.8821C79.9479 69.8898 79.8785 69.8975 79.8092 69.913C79.8631 69.9053 79.9093 69.8898 79.9555 69.8744C79.8939 69.8975 79.8323 69.9284 79.7706 69.9515C79.8785 69.9053 79.971 69.8436 80.0634 69.7743C80.0095 69.8128 79.9633 69.8513 79.9093 69.8976C81.427 68.7188 82.937 67.5324 84.5394 66.477C85.0016 66.1688 85.487 65.9069 86.0186 65.7297C86.2035 65.6681 86.45 65.7143 86.6118 65.8067C86.7736 65.8992 86.9276 66.0841 86.9662 66.269C87.0894 66.685 86.866 67.0702 86.4577 67.2089Z" fill="#19223F"/>
</g>
</g>
</g>
</svg>
