<svg width="732" height="693" viewBox="0 0 732 693" fill="none" xmlns="http://www.w3.org/2000/svg">
<path d="M530.953 155.087L290.647 663.642L22.3984 395.394L530.953 155.087Z" fill="url(#paint0_linear_331_3)"/>
<path d="M508.438 149.282L674.686 9.19403C680.083 4.65791 688.116 5.34814 692.645 10.7164L700.445 19.9971C704.981 25.3942 704.292 33.4277 698.924 37.9561L532.676 178.044" fill="#FAFAFC"/>
<path d="M508.438 149.282L674.686 9.19403C680.083 4.65791 688.116 5.34814 692.645 10.7164L700.445 19.9971C704.981 25.3942 704.292 33.4277 698.924 37.9561L532.676 178.044" stroke="#19223F" stroke-width="6.72985" stroke-miterlimit="10" stroke-linecap="round"/>
<path d="M529.886 180.287C535.432 175.613 534.503 165.387 527.811 157.446C521.12 149.505 511.199 146.856 505.653 151.53C500.106 156.203 501.035 166.43 507.727 174.371C514.419 182.312 524.339 184.961 529.886 180.287Z" fill="#F0EF5D"/>
<path d="M529.886 180.287C535.432 175.613 534.503 165.387 527.811 157.446C521.12 149.505 511.199 146.856 505.653 151.53C500.106 156.203 501.035 166.43 507.727 174.371C514.419 182.312 524.339 184.961 529.886 180.287Z" stroke="#19223F" stroke-width="6.72985" stroke-miterlimit="10" stroke-linecap="round"/>
<defs>
<linearGradient id="paint0_linear_331_3" x1="530.953" y1="155.087" x2="150.998" y2="526" gradientUnits="userSpaceOnUse">
<stop stop-color="#F0EF5D" stop-opacity="0.92"/>
<stop offset="1" stop-color="#F0EF5D" stop-opacity="0"/>
</linearGradient>
</defs>
</svg>
