<svg width="117" height="117" viewBox="0 0 117 117" fill="none" xmlns="http://www.w3.org/2000/svg">
<g id="Logo &#208;&#191;&#208;&#181;&#209;&#135;&#208;&#176;&#209;&#130;&#209;&#140; 1" clip-path="url(#clip0_201_42)">
<path id="Vector" d="M58.5004 116.387C90.4705 116.387 116.387 90.4702 116.387 58.5C116.387 26.5299 90.4705 0.612915 58.5004 0.612915C26.5302 0.612915 0.613281 26.5299 0.613281 58.5C0.613281 90.4702 26.5302 116.387 58.5004 116.387Z" fill="white"/>
<path id="Vector_2" d="M58.5001 116.729C45.0673 116.719 32.0507 112.067 21.6551 103.56C11.2594 95.0526 4.12372 83.2138 1.45661 70.0484C-1.21051 56.883 0.754906 43.2005 7.01995 31.3181C13.285 19.4358 23.4646 10.0842 35.8344 4.84722C50.0608 -1.14595 66.0844 -1.24627 80.3847 4.56831C94.6849 10.3829 106.092 21.6367 112.099 35.857C118.107 50.0773 118.223 66.1009 112.423 80.4069C106.622 94.713 95.38 106.131 81.1657 112.153C73.9952 115.187 66.2862 116.744 58.5001 116.729ZM58.5001 0.953396C26.7666 0.953396 0.953464 26.7665 0.953464 58.5C0.953464 90.2335 26.7666 116.048 58.5001 116.048C90.2336 116.048 116.047 90.2335 116.047 58.5C116.047 26.7665 90.2336 0.953396 58.5001 0.953396Z" fill="#010101"/>
<path id="Vector_3" d="M54.3711 80.3226C57.1168 78.4322 59.7889 78.2796 62.3753 80.1564L58.7076 87.4933L54.3711 80.3226Z" fill="black"/>
<path id="Vector_4" d="M42.4489 81.3291C40.271 81.3291 38.142 80.6832 36.3312 79.4732C34.5203 78.2632 33.109 76.5434 32.2756 74.5312C31.4422 72.5191 31.2242 70.305 31.6492 68.169C32.0742 66.0329 33.123 64.0709 34.6631 62.531C36.2033 60.991 38.1654 59.9424 40.3015 59.5177C42.4376 59.093 44.6517 59.3112 46.6637 60.1449C48.6758 60.9785 50.3954 62.3901 51.6052 64.2011C52.815 66.0121 53.4606 68.1411 53.4603 70.319C53.4545 73.2375 52.2925 76.0348 50.2287 78.0984C48.1649 80.162 45.3674 81.3237 42.4489 81.3291ZM42.4489 59.9873C40.4058 59.9873 38.4086 60.5931 36.7098 61.7281C35.011 62.8632 33.6869 64.4765 32.905 66.3641C32.123 68.2516 31.9184 70.3287 32.3169 72.3325C32.7154 74.3364 33.6991 76.1771 35.1437 77.6219C36.5883 79.0667 38.4289 80.0507 40.4327 80.4494C42.4365 80.8482 44.5136 80.6438 46.4012 79.8621C48.2889 79.0804 49.9024 77.7566 51.0377 76.0579C52.1729 74.3593 52.779 72.3621 52.7793 70.319C52.7743 67.5807 51.6843 64.9559 49.7481 63.0194C47.8119 61.083 45.1873 59.9927 42.4489 59.9873Z" fill="#010101"/>
<path id="Vector_5" d="M74.4659 81.3304C72.2878 81.3304 70.1586 80.6845 68.3475 79.4744C66.5365 78.2643 65.125 76.5444 64.2914 74.5321C63.4579 72.5197 63.2398 70.3054 63.6647 68.1692C64.0897 66.0329 65.1385 64.0706 66.6787 62.5305C68.2189 60.9903 70.1811 59.9414 72.3174 59.5165C74.4537 59.0916 76.668 59.3097 78.6803 60.1432C80.6926 60.9767 82.4126 62.3883 83.6227 64.1993C84.8328 66.0103 85.4786 68.1395 85.4786 70.3177C85.4754 73.2374 84.3141 76.0367 82.2495 78.1013C80.1849 80.1659 77.3856 81.3272 74.4659 81.3304ZM74.4659 59.9872C72.4224 59.9872 70.4248 60.5932 68.7257 61.7286C67.0266 62.8639 65.7024 64.4776 64.9204 66.3655C64.1385 68.2535 63.934 70.3309 64.3327 72.3352C64.7315 74.3394 65.7156 76.1803 67.1607 77.6252C68.6058 79.07 70.4468 80.0539 72.4511 80.4524C74.4553 80.8509 76.5328 80.6461 78.4206 79.8639C80.3085 79.0817 81.922 77.7573 83.0571 76.0581C84.1922 74.3588 84.7979 72.3611 84.7977 70.3177C84.7944 67.5786 83.7048 64.9527 81.7679 63.0161C79.831 61.0794 77.2049 59.9901 74.4659 59.9872Z" fill="#010101"/>
<path id="Vector_6" d="M53.37 70.3762L53.0977 69.7497C56.8035 68.1726 60.4522 68.1726 63.9293 69.7497L63.6487 70.3694C60.3065 68.8508 56.9425 68.8508 53.37 70.3762Z" fill="#010101"/>
<path id="Vector_7" d="M45.6065 73.4229C47.1087 73.4229 48.3264 72.2052 48.3264 70.7031C48.3264 69.201 47.1087 67.9833 45.6065 67.9833C44.1044 67.9833 42.8867 69.201 42.8867 70.7031C42.8867 72.2052 44.1044 73.4229 45.6065 73.4229Z" fill="#010101"/>
<path id="Vector_8" d="M45.606 73.7648C45.0004 73.765 44.4083 73.5857 43.9047 73.2494C43.401 72.9132 43.0084 72.4351 42.7764 71.8757C42.5445 71.3163 42.4837 70.7006 42.6016 70.1066C42.7196 69.5126 43.0111 68.967 43.4392 68.5386C43.8674 68.1103 44.4129 67.8186 45.0068 67.7003C45.6008 67.5821 46.2165 67.6427 46.776 67.8743C47.3355 68.106 47.8138 68.4985 48.1502 69.002C48.4867 69.5055 48.6663 70.0975 48.6663 70.7031C48.6656 71.5146 48.343 72.2928 47.7693 72.8667C47.1955 73.4407 46.4175 73.7637 45.606 73.7648ZM45.606 68.317C45.1353 68.3167 44.6751 68.4559 44.2836 68.7171C43.892 68.9783 43.5866 69.3497 43.4061 69.7844C43.2255 70.2191 43.1779 70.6975 43.2691 71.1593C43.3604 71.621 43.5865 72.0453 43.9188 72.3786C44.2512 72.7119 44.6749 72.9392 45.1364 73.0318C45.5978 73.1244 46.0764 73.0781 46.5116 72.8988C46.9468 72.7195 47.3191 72.4152 47.5814 72.0244C47.8437 71.6336 47.9843 71.1738 47.9853 70.7031C47.9846 70.0723 47.7337 69.4675 47.2876 69.0214C46.8416 68.5754 46.2368 68.3245 45.606 68.3238V68.317Z" fill="#010101"/>
<path id="Vector_9" d="M71.4308 73.4229C72.9329 73.4229 74.1506 72.2052 74.1506 70.7031C74.1506 69.201 72.9329 67.9833 71.4308 67.9833C69.9286 67.9833 68.7109 69.201 68.7109 70.7031C68.7109 72.2052 69.9286 73.4229 71.4308 73.4229Z" fill="#010101"/>
<path id="Vector_10" d="M71.438 73.7648C70.8324 73.765 70.2404 73.5857 69.7367 73.2494C69.233 72.9132 68.8404 72.4351 68.6084 71.8757C68.3765 71.3163 68.3157 70.7006 68.4337 70.1066C68.5516 69.5126 68.8431 68.967 69.2713 68.5386C69.6994 68.1103 70.2449 67.8186 70.8389 67.7003C71.4328 67.5821 72.0485 67.6427 72.608 67.8743C73.1675 68.106 73.6458 68.4985 73.9823 69.002C74.3187 69.5055 74.4983 70.0975 74.4983 70.7031C74.4976 71.5146 74.175 72.2928 73.6013 72.8667C73.0276 73.4407 72.2496 73.7637 71.438 73.7648ZM71.438 68.317C70.9671 68.3167 70.5066 68.4561 70.1149 68.7176C69.7232 68.9791 69.4178 69.3509 69.2375 69.786C69.0571 70.221 69.0098 70.6998 69.1017 71.1618C69.1935 71.6237 69.4202 72.048 69.7533 72.381C70.0863 72.7141 70.5106 72.9408 70.9726 73.0327C71.4345 73.1245 71.9133 73.0772 72.3483 72.8969C72.7834 72.7165 73.1552 72.4111 73.4167 72.0194C73.6782 71.6277 73.8176 71.1673 73.8174 70.6963C73.8148 70.0666 73.5631 69.4636 73.1173 69.019C72.6714 68.5744 72.0677 68.3245 71.438 68.3238V68.317Z" fill="#010101"/>
<path id="Vector_11" d="M30.4453 50.1417C30.4453 50.1417 44.5361 55.2694 47.2872 56.9787C49.721 58.4905 52.5321 64.5171 52.0772 65.7088C52.0772 65.7088 47.8266 60.927 38.8023 60.2869L30.4453 50.1417Z" fill="#010101"/>
<path id="Vector_12" d="M86.5557 50.1417C86.5557 50.1417 72.465 55.2694 69.7138 56.9787C67.28 58.4905 64.4689 64.5171 64.9238 65.7088C64.9238 65.7088 69.1745 60.927 78.1988 60.2869L86.5557 50.1417Z" fill="#010101"/>
<path id="Vector_13" d="M31.3016 34.5119C30.7341 34.4009 30.1462 34.4685 29.6188 34.7056C29.0914 34.9427 28.6506 35.3376 28.357 35.8357L28.3434 35.8602C28.1173 36.2566 28.0111 36.9498 27.8122 37.7956C27.7804 37.9911 27.8221 38.1915 27.9294 38.3581C28.895 39.7554 28.7901 40.8831 27.6148 42.0735C27.3963 42.3162 27.2517 42.6162 27.198 42.9383C27.04 44.3153 26.9447 45.699 26.8098 47.0773C26.675 48.4556 26.5143 49.8298 26.3767 51.2067C26.2787 52.1887 26.201 53.1734 26.1166 54.1554C26.1084 54.2521 26.1166 54.3488 26.103 54.4427C26.0145 55.1632 26.0131 55.1673 25.2776 55.1033C24.8486 55.0665 24.421 54.9998 23.9892 54.9671C23.6787 54.948 23.5806 54.8309 23.6201 54.5122C23.6978 53.9102 23.74 53.3041 23.7917 52.6981C23.804 52.5496 23.7917 52.3998 23.7917 52.25L23.6474 52.2228C23.5411 52.5496 23.4131 52.871 23.3314 53.2047C22.9787 54.6307 22.9827 54.6307 21.599 54.2398C20.6361 53.9674 20.632 53.9674 20.8853 53.014C21.0352 52.4502 21.2 51.8891 21.3593 51.3266L21.2367 51.2639L20.4332 52.2854C20.1853 52.5987 19.9524 52.9269 19.68 53.2156C19.5888 53.3137 19.3245 53.3981 19.2551 53.3423C18.7103 52.9105 18.1914 52.442 17.7215 52.0334C18.7907 50.4699 19.8816 49.0085 20.8241 47.4586C21.8768 45.7262 22.803 43.9176 23.7604 42.1293C23.796 42.0335 23.8102 41.9311 23.802 41.8292C23.7937 41.7273 23.7633 41.6285 23.7128 41.5396C22.7757 40.0414 23.3723 38.211 25.0339 37.6117C25.3498 37.4987 25.4819 37.3216 25.5582 36.9811C25.7875 35.9045 26.0882 34.8444 26.4585 33.8078C26.6614 33.2548 26.6192 33.0546 26.1139 32.9034C22.8452 31.9201 19.5765 30.9082 16.3078 29.9072C16.1328 29.862 15.9744 29.7674 15.8516 29.6348C16.5325 29.4277 17.2135 29.218 17.8945 29.0137L42.9694 21.4876C47.9405 19.9939 52.9126 18.5022 57.8855 17.0122C58.2206 16.9127 58.5774 16.9127 58.9124 17.0122C66.879 19.3874 74.8414 21.7736 82.7997 24.1706C88.7088 25.9421 94.6188 27.7126 100.53 29.4822C100.69 29.5313 100.85 29.5885 101.159 29.692C100.87 29.7982 100.719 29.8622 100.562 29.9099L86.285 34.2028C83.2546 35.1139 80.227 36.0319 77.1926 36.9267C76.8044 37.0411 76.7186 37.2059 76.784 37.6076C77.0291 39.1058 77.2212 40.6039 77.4364 42.1021C77.6516 43.6002 77.8749 45.0984 78.0887 46.5965C78.2617 47.81 78.4265 49.0262 78.5954 50.2397C78.5954 50.2711 78.5954 50.3038 78.5954 50.3364C78.6209 50.6367 78.5524 50.9375 78.3994 51.1971C78.2464 51.4567 78.0165 51.6624 77.7414 51.7856C73.74 53.5861 69.5316 54.6538 65.2115 55.3403C61.9115 55.8646 58.5937 55.9259 55.2692 55.7243C50.6386 55.4451 46.1659 54.4264 41.8036 52.8969C40.6595 52.4965 39.57 51.9626 38.4436 51.5023C38.1481 51.3811 38.0541 51.2204 38.1045 50.8826C38.7732 46.4413 39.4215 41.9958 40.0821 37.5532C40.1185 37.4166 40.1045 37.2716 40.0426 37.1446C39.9696 37.0452 39.8615 36.9775 39.7402 36.9553C39.4025 36.8681 36.1869 35.9147 31.7415 34.595L31.3016 34.5119Z" fill="#243B75"/>
<path id="Vector_14" d="M58.6472 56.0008C57.5577 56.0008 56.4286 55.9654 55.2601 55.8946C50.8541 55.629 46.4346 54.7002 41.7495 53.0576C41.0018 52.7961 40.2636 52.4734 39.5513 52.1615C39.1672 51.9939 38.7709 51.821 38.3787 51.6603C37.9864 51.4996 37.8747 51.2667 37.936 50.8581C38.3378 48.1791 38.7409 45.4552 39.1291 42.8226C39.3897 41.0575 39.6507 39.2933 39.9122 37.53C39.94 37.4336 39.9352 37.3306 39.8986 37.2372C39.8504 37.1755 39.7818 37.1331 39.7052 37.1173C39.3715 37.0315 36.4597 36.164 31.7024 34.7557L31.272 34.674C30.7393 34.5695 30.1872 34.6328 29.692 34.8553C29.1969 35.0778 28.7829 35.4484 28.5072 35.9161L28.4922 35.9406C28.3356 36.213 28.2335 36.6856 28.115 37.229C28.0741 37.4183 28.0292 37.6199 27.9788 37.831C27.9568 37.9794 27.9892 38.1308 28.07 38.2573C29.0792 39.72 28.9771 40.9322 27.7364 42.1892C27.5447 42.4052 27.4169 42.6702 27.3673 42.9547C27.2706 43.795 27.197 44.653 27.1248 45.4825C27.0785 46.0095 27.0322 46.5543 26.9805 47.0896C26.9097 47.8141 26.8293 48.5482 26.753 49.2591C26.6822 49.9129 26.6168 50.5653 26.546 51.219C26.4765 51.9259 26.4098 52.645 26.3567 53.3409C26.334 53.6133 26.3104 53.8884 26.2859 54.1663C26.2859 54.2058 26.2859 54.2439 26.2859 54.2834C26.286 54.3425 26.2828 54.4017 26.2763 54.4604C26.1769 55.2776 26.0911 55.3403 25.2685 55.2694C25.0833 55.2531 24.8994 55.2313 24.7155 55.2109C24.4758 55.1823 24.2266 55.1537 23.9842 55.1387C23.9033 55.1404 23.823 55.1255 23.748 55.0951C23.6731 55.0646 23.6052 55.0192 23.5483 54.9616C23.5019 54.8937 23.4697 54.817 23.4538 54.7362C23.4379 54.6554 23.4385 54.5723 23.4557 54.4918C23.5184 54.0124 23.5579 53.5207 23.5919 53.044L23.6056 52.8779C23.5661 53.0004 23.5279 53.1244 23.498 53.2469V53.2619C23.3127 54.0137 23.2188 54.3923 22.9382 54.5544C22.6576 54.7165 22.2926 54.613 21.5599 54.4046C20.503 54.1063 20.4485 54.0124 20.7264 52.9732C20.8299 52.5837 20.9429 52.1901 21.0505 51.8101C21.0505 51.7965 21.0587 51.7842 21.0614 51.772L20.5725 52.393C20.5057 52.4774 20.4363 52.5632 20.375 52.6491C20.1979 52.8792 20.0141 53.1176 19.8098 53.33C19.6872 53.4594 19.3277 53.6092 19.1561 53.473C18.7325 53.138 18.3389 52.7921 17.9466 52.4488C17.835 52.3494 17.7246 52.2527 17.6157 52.1601L17.5013 52.0607L17.5871 51.9354C17.918 51.4505 18.2544 50.9725 18.5799 50.5081C19.3277 49.4417 20.0359 48.4338 20.6842 47.3674C21.5218 45.9905 22.2926 44.5373 23.0376 43.1331C23.2292 42.7699 23.4221 42.4067 23.6164 42.0435C23.6376 41.9743 23.6448 41.9016 23.6376 41.8295C23.6303 41.7575 23.6088 41.6876 23.5742 41.624C23.3391 41.261 23.1884 40.8499 23.133 40.421C23.0776 39.992 23.119 39.5561 23.2542 39.1453C23.3944 38.7498 23.6228 38.3914 23.922 38.0971C24.2212 37.8029 24.5833 37.5806 24.9811 37.4469C25.2317 37.357 25.3325 37.2331 25.3979 36.9389C25.628 35.8544 25.9305 34.7865 26.3036 33.7424C26.403 33.47 26.4289 33.3188 26.3894 33.2385C26.3499 33.1581 26.2532 33.1146 26.0707 33.0601C23.4462 32.2729 20.7849 31.453 18.2109 30.6617L16.2605 30.0611C16.0565 30.0052 15.8724 29.8928 15.7294 29.7369L15.5469 29.5381L16.4499 29.2657C16.9138 29.1231 17.3782 28.9815 17.8431 28.8407L27.4966 25.9493L42.9126 21.3187L47.1714 20.0371C50.6635 18.987 54.274 17.9002 57.8301 16.8433C58.1961 16.7337 58.5863 16.7337 58.9523 16.8433C64.8836 18.6138 70.9103 20.4198 76.7381 22.1699L82.841 24.0004L93.8919 27.3113L100.565 29.312C100.67 29.3433 100.774 29.3787 100.917 29.4264L101.2 29.5217L101.662 29.6756L101.204 29.8431L100.941 29.9426C100.805 29.9943 100.704 30.0325 100.598 30.0638L89.9613 33.2753L84.0518 35.0458C81.8209 35.7186 79.5137 36.4078 77.242 37.0887C76.9424 37.1773 76.8988 37.2508 76.9533 37.5818C77.1221 38.6182 77.2692 39.6751 77.4109 40.6965C77.4749 41.1569 77.5389 41.6159 77.6056 42.0762C77.7023 42.7572 77.8018 43.4273 77.8998 44.1042C78.0197 44.9213 78.1386 45.7426 78.2566 46.5679C78.3819 47.4382 78.5018 48.3085 78.6216 49.1788L78.7578 50.2112C78.7578 50.2357 78.7578 50.2588 78.7578 50.2833C78.7572 50.2938 78.7572 50.3042 78.7578 50.3147C78.7872 50.6504 78.7111 50.9869 78.5402 51.2774C78.3693 51.5679 78.1122 51.7979 77.8045 51.9354C74.183 53.5738 70.0768 54.741 65.2418 55.5037C63.0602 55.8433 60.8551 56.0095 58.6472 56.0008ZM31.3319 34.3458L31.7882 34.4329C35.8917 35.6492 39.4328 36.7088 39.7815 36.7905C39.9467 36.8224 40.0931 36.9171 40.1901 37.0547C40.2744 37.2159 40.2971 37.4023 40.2541 37.579C39.9917 39.3423 39.7302 41.106 39.4696 42.8702C39.0814 45.5056 38.6796 48.2295 38.2765 50.9058C38.2384 51.1591 38.2874 51.249 38.5121 51.3416C38.9085 51.505 39.3061 51.6793 39.6916 51.8469C40.3984 52.156 41.1298 52.4761 41.8707 52.7335C46.5259 54.3678 50.9154 55.2885 55.29 55.5527C58.9455 55.7734 62.187 55.6481 65.1982 55.1687C69.9978 54.4073 74.0809 53.2483 77.6819 51.6276C77.9249 51.5192 78.128 51.3378 78.263 51.1086C78.398 50.8794 78.4581 50.6137 78.4351 50.3487C78.4351 50.3324 78.4351 50.316 78.4351 50.2997C78.4357 50.2865 78.4357 50.2733 78.4351 50.2602L78.2989 49.2292C78.179 48.3594 78.0578 47.4891 77.9352 46.6183C77.8181 45.8012 77.6992 44.9803 77.5784 44.1559C77.4794 43.4795 77.3809 42.803 77.2828 42.1266C77.2175 41.6672 77.153 41.2073 77.0894 40.7469C76.9533 39.7268 76.8007 38.6713 76.6318 37.639C76.5501 37.1405 76.6931 36.9021 77.1603 36.7646C79.432 36.0918 81.7378 35.3958 83.97 34.7217L89.8795 32.943L100.529 29.7396C100.574 29.726 100.619 29.711 100.665 29.6933L100.495 29.6389L93.821 27.6395L82.7429 24.334L76.64 22.5022C70.8122 20.7535 64.791 18.9434 58.8556 17.1756C58.5526 17.0851 58.2298 17.0851 57.9268 17.1756C54.3721 18.2311 50.7615 19.318 47.2695 20.3694L43.0107 21.6496C37.8725 23.1932 32.7334 24.7367 27.5934 26.2803L17.9357 29.1772C17.4718 29.3161 17.0078 29.4573 16.5438 29.6007L16.221 29.6988C16.2656 29.7174 16.311 29.7338 16.3572 29.7478L18.3076 30.3484C20.8816 31.1397 23.5429 31.9596 26.166 32.7468C26.369 32.8081 26.591 32.8966 26.6917 33.0996C26.7925 33.3025 26.7367 33.5558 26.6209 33.8732C26.2532 34.9026 25.9547 35.9555 25.7275 37.0247C25.6376 37.4333 25.4551 37.6499 25.0942 37.7792C24.7443 37.8962 24.4256 38.091 24.162 38.3491C23.8985 38.6073 23.697 38.9219 23.5729 39.2692C23.4544 39.6322 23.4189 40.0171 23.4688 40.3957C23.5188 40.7742 23.653 41.1367 23.8616 41.4565C23.9278 41.5708 23.967 41.6986 23.9762 41.8304C23.9854 41.9621 23.9644 42.0941 23.9147 42.2165C23.7204 42.5797 23.5275 42.9429 23.3359 43.3061C22.5882 44.7143 21.8146 46.1662 20.9729 47.5567C20.3178 48.6326 19.6109 49.6446 18.8551 50.7164C18.5582 51.1386 18.2531 51.5745 17.9507 52.0144L18.1686 52.2051C18.5445 52.5346 18.9313 52.8751 19.3399 53.1993C19.4195 53.1888 19.4951 53.1578 19.5592 53.1094C19.7519 52.8981 19.9337 52.6772 20.104 52.4475C20.1707 52.3617 20.2402 52.2745 20.3055 52.1887L20.8694 51.4723L21.1949 51.0637L21.5667 51.2517L21.5286 51.3879C21.4795 51.5636 21.4292 51.7393 21.3788 51.915C21.2698 52.2949 21.1581 52.6858 21.0546 53.0726C20.9511 53.4594 20.8844 53.7155 20.9388 53.8094C20.9933 53.9034 21.2548 53.977 21.6511 54.0886C22.2518 54.2589 22.614 54.361 22.768 54.2725C22.9219 54.184 23.0145 53.8094 23.1684 53.1925V53.1775C23.2269 52.9419 23.3046 52.7117 23.3849 52.4883C23.4203 52.3876 23.4557 52.2854 23.4898 52.1833L23.5361 52.0471L23.9651 52.1274V52.2636C23.9651 52.3099 23.9651 52.3562 23.9651 52.3998C23.9712 52.5082 23.9712 52.6169 23.9651 52.7253L23.9365 53.0821C23.897 53.5629 23.8562 54.0587 23.7935 54.5462C23.7758 54.6893 23.7935 54.7397 23.8098 54.756C23.8262 54.7723 23.867 54.8009 24.0046 54.8105C24.2566 54.8255 24.5099 54.8554 24.755 54.8827C24.9348 54.9044 25.116 54.9249 25.2998 54.9412C25.5586 54.963 25.782 54.9821 25.8337 54.9412C25.8855 54.9004 25.91 54.6824 25.9413 54.4291C25.9462 54.3839 25.9485 54.3384 25.9481 54.2929C25.9481 54.2453 25.9481 54.1976 25.9481 54.1567C25.9726 53.8843 25.9962 53.6092 26.0189 53.3314C26.0775 52.6341 26.1388 51.9136 26.2082 51.2054C26.2736 50.5503 26.3444 49.8965 26.4153 49.2414C26.4929 48.5319 26.5719 47.7978 26.6427 47.0759C26.6945 46.5421 26.7421 45.9986 26.7871 45.4729C26.8593 44.6408 26.9328 43.78 27.0295 42.9342C27.0882 42.5741 27.25 42.2387 27.4953 41.9686C28.6135 40.8355 28.702 39.7895 27.7908 38.4698C27.6577 38.2629 27.609 38.0128 27.6546 37.7711C27.7037 37.5627 27.7472 37.3625 27.7908 37.1759C27.9202 36.5807 28.0224 36.1109 28.1994 35.7908L28.2158 35.7649C28.5265 35.2362 28.9937 34.817 29.5528 34.5653C30.112 34.3135 30.7355 34.2416 31.3374 34.3594L31.3319 34.3458Z" fill="#010101"/>
<path id="Vector_15" d="M29.6886 97.3061C29.4728 97.3076 29.2601 97.2547 29.0702 97.1522C28.883 97.0553 28.7296 96.9038 28.6303 96.7178C28.5293 96.525 28.4966 96.3036 28.5377 96.0899L28.6181 95.6405L28.7543 95.9605C28.6816 96.2682 28.5364 96.554 28.3307 96.794C28.1669 96.9791 27.9588 97.1197 27.726 97.2026C27.5137 97.2746 27.291 97.3114 27.0668 97.3116C26.8154 97.3104 26.5689 97.2417 26.3531 97.1127C26.1201 96.9755 25.9275 96.7791 25.7947 96.5434C25.646 96.275 25.5717 95.9717 25.5795 95.665C25.5831 95.332 25.6458 95.0022 25.7648 94.6912C25.8882 94.3537 26.0597 94.0358 26.2741 93.7474C26.479 93.4646 26.7366 93.2241 27.0327 93.0391C27.3114 92.8613 27.6351 92.7668 27.9657 92.7667C28.2478 92.7646 28.5197 92.872 28.7243 93.0664C28.9539 93.286 29.0871 93.5877 29.0947 93.9053L28.8223 94.5536L29.0321 93.1917C29.0501 93.0866 29.1028 92.9907 29.1819 92.9193C29.236 92.8712 29.2992 92.8344 29.3677 92.811C29.4362 92.7876 29.5087 92.7781 29.581 92.7831C29.8139 92.7831 29.9678 92.8348 30.0454 92.937C30.0856 93.001 30.1121 93.0727 30.1231 93.1475C30.1341 93.2223 30.1295 93.2986 30.1094 93.3714L29.7103 95.8883C29.6777 96.1144 29.7035 96.2779 29.7907 96.3773C29.8293 96.4244 29.8779 96.4624 29.9331 96.4883C29.9882 96.5142 30.0485 96.5275 30.1094 96.5271C30.3199 96.5233 30.5213 96.4412 30.6746 96.2969C30.8649 96.125 31.0206 95.9184 31.1336 95.6881C31.2694 95.4183 31.3732 95.1336 31.4427 94.8396C31.5191 94.5276 31.5575 94.2075 31.5572 93.8863C31.5686 93.4617 31.4568 93.0428 31.2351 92.6805C31.0135 92.3181 30.6915 92.0278 30.3082 91.8447C29.8633 91.6363 29.3762 91.5337 28.885 91.5451C28.2795 91.5399 27.6773 91.6361 27.1036 91.8297C26.5713 92.0106 26.0795 92.2937 25.6558 92.6632C25.2371 93.0328 24.9047 93.4898 24.682 94.002C24.4406 94.5696 24.3213 95.1817 24.332 95.7985C24.3322 96.1562 24.3878 96.5118 24.4968 96.8526C24.6062 97.194 24.7811 97.5109 25.0116 97.7855C25.2581 98.0752 25.5693 98.3029 25.92 98.4502C26.3481 98.6228 26.807 98.7058 27.2684 98.694C27.5828 98.6984 27.897 98.6734 28.2067 98.6191C28.4467 98.5753 28.681 98.5049 28.9054 98.4093C29.1138 98.3193 29.317 98.2179 29.5142 98.1056C29.5567 98.074 29.6067 98.0541 29.6593 98.0479C29.7119 98.0416 29.7652 98.0493 29.8138 98.0702C29.904 98.1174 29.9719 98.1981 30.0032 98.2949C30.0835 98.4951 29.9664 98.6749 29.6545 98.8397C29.3334 99.0014 29.0032 99.1447 28.6657 99.2687C28.216 99.4209 27.7429 99.4919 27.2684 99.4785C26.6766 99.494 26.0883 99.385 25.5414 99.1584C25.0971 98.97 24.7023 98.6815 24.3878 98.3153C24.0944 97.9675 23.8723 97.5654 23.7341 97.1318C23.5948 96.7011 23.524 96.2511 23.5244 95.7985C23.5107 95.0787 23.65 94.3643 23.9329 93.7024C24.1989 93.0977 24.5902 92.5565 25.0811 92.1144C25.577 91.6714 26.1555 91.3307 26.7835 91.112C27.454 90.8779 28.1599 90.7613 28.87 90.7674C29.5374 90.7431 30.2002 90.8874 30.7972 91.1869C31.29 91.445 31.6973 91.8405 31.9698 92.3255C32.2345 92.8071 32.3706 93.3489 32.3648 93.8985C32.3641 94.3092 32.3036 94.7175 32.185 95.1107C32.0699 95.5036 31.8909 95.8749 31.6552 96.2098C31.4326 96.5299 31.1454 96.7999 30.8122 97.0024C30.4733 97.2065 30.0841 97.3117 29.6886 97.3061ZM27.3828 96.4086C27.5491 96.4101 27.7128 96.3668 27.8567 96.2833C27.9979 96.2017 28.1244 96.0973 28.2313 95.9741C28.3358 95.8545 28.4271 95.7239 28.5037 95.5846C28.566 95.4723 28.6163 95.3535 28.6535 95.2305C28.7924 94.8174 28.8437 94.4996 28.8074 94.2772C28.7997 94.183 28.7713 94.0916 28.7242 94.0097C28.6771 93.9278 28.6125 93.8573 28.535 93.8032C28.3814 93.7108 28.2048 93.6636 28.0256 93.667C27.8277 93.666 27.6355 93.7328 27.4808 93.8563C27.3108 93.9907 27.1683 94.1567 27.0613 94.3452C26.8353 94.7409 26.7135 95.1875 26.7072 95.6432C26.6919 95.8516 26.7583 96.0577 26.8925 96.2179C26.9564 96.2821 27.033 96.3323 27.1175 96.3651C27.2019 96.398 27.2923 96.4128 27.3828 96.4086Z" fill="#010101"/>
<path id="Vector_16" d="M33.7109 97.8604C33.6537 97.8639 33.5964 97.8554 33.5427 97.8353C33.489 97.8152 33.4402 97.784 33.3993 97.7438C33.3585 97.7036 33.3265 97.6553 33.3056 97.6019C33.2847 97.5486 33.2752 97.4914 33.2778 97.4341V93.3891C33.2765 93.3326 33.287 93.2764 33.3085 93.2241C33.3301 93.1719 33.3623 93.1246 33.4031 93.0854C33.4457 93.0445 33.4961 93.0126 33.5513 92.9915C33.6065 92.9705 33.6654 92.9607 33.7245 92.9629C33.782 92.9603 33.8393 92.9699 33.8928 92.991C33.9463 93.0121 33.9948 93.0443 34.035 93.0854C34.1123 93.1673 34.154 93.2766 34.1508 93.3891V97.4301C34.1523 97.486 34.1426 97.5417 34.1222 97.5939C34.1019 97.6461 34.0713 97.6936 34.0323 97.7338C33.9905 97.7762 33.9403 97.8093 33.885 97.8311C33.8296 97.8529 33.7703 97.8629 33.7109 97.8604ZM36.7303 92.9329C36.7832 92.9325 36.8355 92.9446 36.8829 92.9683C36.9302 92.9919 36.9713 93.0265 37.0027 93.0691C37.0689 93.1449 37.1074 93.2409 37.1117 93.3415C37.11 93.3931 37.0979 93.4438 37.0762 93.4906C37.0544 93.5374 37.0234 93.5794 36.985 93.6139L34.0568 96.4154L34.0227 95.4171L36.3857 93.0936C36.4287 93.0442 36.4813 93.0041 36.5403 92.9758C36.5994 92.9474 36.6635 92.9315 36.729 92.9288L36.7303 92.9329ZM36.6445 97.8604C36.5829 97.8616 36.5219 97.8475 36.4671 97.8195C36.4122 97.7915 36.3651 97.7503 36.3299 97.6997L34.716 95.5751L35.352 94.9241L37.0218 97.1332C37.0849 97.2152 37.1193 97.3157 37.1198 97.4192C37.1215 97.48 37.1091 97.5405 37.0836 97.5958C37.0581 97.651 37.0202 97.6997 36.9727 97.7379C36.8817 97.817 36.7651 97.8605 36.6445 97.8604Z" fill="#010101"/>
<path id="Vector_17" d="M39.6539 94.0606L38.1435 97.6112C38.1152 97.6932 38.063 97.7648 37.9937 97.8169C37.9299 97.8644 37.8526 97.8902 37.773 97.8904C37.7216 97.8949 37.6698 97.8878 37.6215 97.8696C37.5732 97.8515 37.5296 97.8227 37.4938 97.7855C37.4319 97.7139 37.3993 97.6214 37.4026 97.5268C37.4025 97.4805 37.4098 97.4345 37.4244 97.3906L39.1622 93.2148C39.1965 93.1271 39.2563 93.0517 39.3338 92.9983C39.4061 92.948 39.4942 92.9257 39.5817 92.9356C39.6655 92.9356 39.7473 92.9612 39.8159 93.0092C39.8895 93.0588 39.945 93.1309 39.9739 93.2148L41.6941 97.3157C41.7158 97.3689 41.7278 97.4257 41.7295 97.4832C41.7306 97.5358 41.7213 97.5881 41.7022 97.6371C41.683 97.6861 41.6544 97.7308 41.618 97.7687C41.5816 97.8067 41.538 97.8371 41.4899 97.8582C41.4417 97.8793 41.3898 97.8907 41.3373 97.8918C41.2555 97.8922 41.176 97.8654 41.1112 97.8155C41.0406 97.7611 40.986 97.6886 40.9532 97.6058L39.455 94.1042L39.6539 94.0606ZM38.36 96.7586L38.7455 95.9551H40.6318L40.768 96.7586H38.36Z" fill="#010101"/>
<path id="Vector_18" d="M44.5078 92.9574C44.9559 92.9574 45.2882 93.0623 45.5075 93.272C45.7267 93.4817 45.8357 93.7923 45.8357 94.2022C45.8426 94.4085 45.7851 94.6119 45.6711 94.784C45.5571 94.956 45.3923 95.0883 45.1997 95.1624C44.9533 95.2602 44.6896 95.3065 44.4247 95.2986L44.4519 94.984C44.6188 94.9863 44.7849 95.0059 44.9477 95.0425C45.1391 95.0836 45.3229 95.1544 45.4925 95.2523C45.6868 95.3621 45.8464 95.5242 45.9533 95.7202C46.0602 95.9161 46.11 96.1381 46.0972 96.3609C46.1067 96.6207 46.0554 96.879 45.9474 97.1154C45.8573 97.2984 45.7212 97.4546 45.5524 97.569C45.3931 97.6749 45.2152 97.7498 45.028 97.7896C44.8513 97.8282 44.671 97.8483 44.4901 97.8495H42.7468C42.6905 97.8506 42.6346 97.8404 42.5823 97.8193C42.5301 97.7983 42.4827 97.767 42.4429 97.7272C42.4031 97.6873 42.3717 97.6399 42.3507 97.5877C42.3296 97.5355 42.3194 97.4795 42.3205 97.4232V93.3891C42.3189 93.3328 42.3289 93.2767 42.35 93.2245C42.3711 93.1722 42.4028 93.1249 42.4431 93.0854C42.4825 93.0451 42.5298 93.0135 42.5821 92.9924C42.6344 92.9713 42.6904 92.9612 42.7468 92.9628L44.5078 92.9574ZM44.3825 93.7827H43.1377L43.2289 93.6711V94.9363L43.1445 94.8723H44.4029C44.5365 94.872 44.6656 94.8237 44.7666 94.7361C44.8211 94.6888 44.864 94.6295 44.8919 94.5629C44.9198 94.4963 44.9319 94.4241 44.9273 94.352C44.9386 94.2766 44.9326 94.1996 44.9097 94.1268C44.8868 94.0541 44.8475 93.9875 44.795 93.9322C44.7425 93.8769 44.678 93.8343 44.6065 93.8077C44.535 93.7811 44.4584 93.7712 44.3825 93.7787V93.7827ZM44.4383 95.6976H43.1663L43.2289 95.6418V97.1168L43.1594 97.046H44.4873C44.6726 97.0563 44.8549 96.9954 44.9967 96.8757C45.0633 96.8088 45.1146 96.7282 45.1473 96.6396C45.18 96.551 45.1932 96.4564 45.186 96.3623C45.2007 96.2003 45.1556 96.0385 45.0594 95.9074C44.9811 95.8182 44.8759 95.757 44.7597 95.7331C44.6538 95.7127 44.5462 95.7026 44.4383 95.7031V95.6976Z" fill="#010101"/>
<path id="Vector_19" d="M47.772 97.4301C47.7727 97.4875 47.7609 97.5445 47.7374 97.5969C47.7139 97.6494 47.6792 97.6961 47.6359 97.7338C47.5532 97.8133 47.4427 97.8573 47.3281 97.8564C47.2708 97.8599 47.2135 97.8513 47.1599 97.8312C47.1062 97.8111 47.0573 97.7799 47.0165 97.7397C46.9757 97.6995 46.9437 97.6512 46.9228 97.5978C46.9018 97.5445 46.8924 97.4873 46.8949 97.4301V93.3892C46.8937 93.3326 46.9042 93.2764 46.9257 93.2241C46.9473 93.1719 46.9795 93.1246 47.0203 93.0854C47.0632 93.0446 47.1139 93.0126 47.1693 92.9916C47.2247 92.9705 47.2838 92.9608 47.343 92.9629C47.4543 92.9629 47.5611 93.0069 47.6399 93.0854C47.6814 93.1243 47.7144 93.1713 47.7367 93.2236C47.759 93.2759 47.7701 93.3323 47.7693 93.3892L47.772 97.4301Z" fill="#010101"/>
<path id="Vector_20" d="M52.5327 92.9574C52.5836 92.9557 52.6342 92.9649 52.6812 92.9844C52.7282 93.0039 52.7704 93.0332 52.8051 93.0705C52.8743 93.1441 52.9119 93.2419 52.91 93.3429V97.4178C52.9113 97.4742 52.9011 97.5302 52.8802 97.5825C52.8592 97.6348 52.8279 97.6823 52.788 97.7222C52.7482 97.762 52.7007 97.7934 52.6484 97.8143C52.596 97.8353 52.54 97.8454 52.4837 97.8441C52.4207 97.8433 52.3582 97.8328 52.2985 97.8128C52.2462 97.7954 52.1993 97.7649 52.1623 97.7243L49.4152 94.2377L49.5977 94.126V97.4519C49.5989 97.5535 49.5597 97.6515 49.4888 97.7243C49.4521 97.7619 49.4079 97.7913 49.3591 97.8108C49.3103 97.8303 49.258 97.8393 49.2055 97.8373C49.1546 97.839 49.104 97.8297 49.057 97.8102C49.0101 97.7907 48.9678 97.7614 48.9331 97.7243C48.8644 97.6503 48.8268 97.5528 48.8282 97.4519V93.3892C48.8271 93.3329 48.8374 93.2769 48.8584 93.2247C48.8794 93.1725 48.9108 93.1251 48.9506 93.0853C48.9904 93.0454 49.0378 93.0141 49.0901 92.9931C49.1423 92.972 49.1982 92.9618 49.2545 92.9629C49.324 92.9638 49.3927 92.9772 49.4574 93.0024C49.5203 93.0219 49.5746 93.0622 49.6113 93.1168L52.2739 96.5135L52.1555 96.5979V93.3551C52.1541 93.2542 52.1916 93.1566 52.2603 93.0827C52.2942 93.0437 52.336 93.0123 52.383 92.9907C52.43 92.9691 52.481 92.9577 52.5327 92.9574Z" fill="#010101"/>
<path id="Vector_21" d="M54.3834 92.9574H56.7287C56.8412 92.9544 56.9504 92.996 57.0324 93.0732C57.0727 93.1112 57.1045 93.1573 57.1256 93.2085C57.1467 93.2597 57.1567 93.3148 57.155 93.3701C57.1569 93.4235 57.1468 93.4766 57.1256 93.5256C57.1044 93.5746 57.0726 93.6182 57.0324 93.6534C56.9486 93.7269 56.8401 93.7658 56.7287 93.7623H54.7675L54.8315 93.6425V95.0044L54.7743 94.9486H56.4086C56.4644 94.9468 56.52 94.9561 56.5721 94.976C56.6243 94.9959 56.6719 95.0259 56.7123 95.0644C56.7528 95.1022 56.7846 95.1483 56.8058 95.1995C56.8269 95.2508 56.8369 95.3059 56.8349 95.3613C56.8367 95.4146 56.8266 95.4677 56.8054 95.5167C56.7842 95.5657 56.7525 95.6093 56.7123 95.6446C56.6284 95.7177 56.5199 95.7561 56.4086 95.7522H54.7961L54.8315 95.6963V97.1087L54.7743 97.0447H56.7287C56.785 97.043 56.8411 97.0531 56.8934 97.0742C56.9456 97.0953 56.993 97.1269 57.0324 97.1672C57.0711 97.2035 57.102 97.2474 57.1231 97.2962C57.1441 97.3449 57.155 97.3974 57.155 97.4505C57.1568 97.5043 57.1467 97.5578 57.1256 97.6072C57.1044 97.6566 57.0726 97.7008 57.0324 97.7365C56.9515 97.8163 56.8423 97.8609 56.7287 97.8605H54.3834C54.3271 97.8616 54.2712 97.8513 54.219 97.8303C54.1667 97.8092 54.1193 97.7779 54.0795 97.7381C54.0397 97.6983 54.0083 97.6508 53.9873 97.5986C53.9663 97.5464 53.956 97.4905 53.9571 97.4342V93.3892C53.956 93.3329 53.9663 93.2769 53.9873 93.2247C54.0083 93.1725 54.0397 93.1251 54.0795 93.0853C54.1193 93.0455 54.1667 93.0141 54.219 92.9931C54.2712 92.972 54.3271 92.9618 54.3834 92.9629V92.9574Z" fill="#010101"/>
<path id="Vector_22" d="M58.0673 93.7746C57.9552 93.7778 57.8463 93.7372 57.7635 93.6615C57.723 93.6246 57.691 93.5793 57.6698 93.5287C57.6486 93.4781 57.6388 93.4235 57.641 93.3687C57.6386 93.3143 57.6484 93.2601 57.6696 93.2099C57.6908 93.1597 57.7229 93.1149 57.7635 93.0786C57.8474 93.0053 57.9559 92.9664 58.0673 92.9697H61.1711C61.2832 92.9665 61.3921 93.007 61.4749 93.0827C61.5154 93.1196 61.5474 93.165 61.5686 93.2156C61.5897 93.2661 61.5996 93.3207 61.5974 93.3755C61.5998 93.43 61.59 93.4842 61.5688 93.5344C61.5476 93.5845 61.5155 93.6294 61.4749 93.6656C61.391 93.739 61.2825 93.7779 61.1711 93.7746H58.0673ZM59.6117 97.8605C59.5527 97.8624 59.4938 97.8526 59.4386 97.8316C59.3834 97.8105 59.333 97.7787 59.2903 97.7379C59.2495 97.6987 59.2173 97.6514 59.1958 97.5992C59.1742 97.5469 59.1637 97.4907 59.165 97.4342V93.3755H60.0734V97.4301C60.0748 97.487 60.064 97.5436 60.0417 97.596C60.0194 97.6484 59.9861 97.6954 59.944 97.7338C59.8998 97.7758 59.8476 97.8087 59.7906 97.8304C59.7335 97.8521 59.6727 97.8624 59.6117 97.8605Z" fill="#010101"/>
<path id="Vector_23" d="M62.7842 99.4539C62.7205 99.4558 62.6571 99.4448 62.5978 99.4213C62.5386 99.3979 62.4848 99.3627 62.4396 99.3177C62.353 99.2277 62.3047 99.1076 62.3047 98.9827C62.3047 98.8578 62.353 98.7377 62.4396 98.6477C62.4848 98.6027 62.5386 98.5675 62.5978 98.544C62.6571 98.5206 62.7205 98.5095 62.7842 98.5115H67.8561C67.9197 98.509 67.9832 98.5197 68.0424 98.5429C68.1017 98.5661 68.1556 98.6013 68.2006 98.6463C68.2456 98.6914 68.2809 98.7452 68.3041 98.8045C68.3273 98.8638 68.338 98.9272 68.3355 98.9909C68.3373 99.0523 68.3261 99.1134 68.3027 99.1702C68.2792 99.227 68.2439 99.2782 68.1993 99.3205C68.1539 99.3651 68.1001 99.4002 68.0409 99.4236C67.9817 99.447 67.9184 99.4583 67.8547 99.4566L62.7842 99.4539Z" fill="#010101"/>
<path id="Vector_24" d="M72.6653 92.9574C72.7763 92.9606 72.883 93.0004 72.969 93.0705C73.017 93.104 73.0558 93.1489 73.082 93.2013C73.1081 93.2536 73.1208 93.3116 73.1189 93.3701C73.1164 93.4668 73.0825 93.56 73.0222 93.6357L70.35 97.08L70.2669 97.0514H72.5972C72.7086 97.0481 72.8171 97.087 72.9009 97.1604C72.9416 97.1967 72.9737 97.2415 72.9949 97.2917C73.0161 97.3418 73.0259 97.3961 73.0235 97.4505C73.0248 97.5048 73.0145 97.5587 72.9933 97.6087C72.9722 97.6587 72.9407 97.7036 72.9009 97.7406C72.8188 97.8175 72.7097 97.8591 72.5972 97.8564H69.5328C69.4739 97.856 69.4157 97.8438 69.3616 97.8204C69.3076 97.797 69.2588 97.7629 69.2182 97.7202C69.1773 97.6848 69.1441 97.6414 69.1206 97.5927C69.0972 97.544 69.0841 97.4909 69.082 97.4369C69.0835 97.3377 69.118 97.2418 69.1801 97.1645L71.8645 93.7119L71.9272 93.7542H69.8052C69.6932 93.7573 69.5842 93.7168 69.5015 93.6411C69.461 93.6042 69.429 93.5589 69.4078 93.5083C69.3866 93.4577 69.3768 93.4031 69.3789 93.3483C69.3766 93.2939 69.3864 93.2396 69.4076 93.1895C69.4288 93.1393 69.4609 93.0945 69.5015 93.0582C69.5866 92.9878 69.6949 92.9518 69.8052 92.9574H72.6653Z" fill="#010101"/>
<path id="Vector_25" d="M77.5991 92.9574C77.65 92.9557 77.7006 92.9649 77.7476 92.9844C77.7946 93.0039 77.8368 93.0332 77.8715 93.0705C77.9402 93.1444 77.9778 93.242 77.9764 93.3429V97.4178C77.9775 97.4741 77.9672 97.53 77.9462 97.5823C77.9252 97.6345 77.8938 97.6819 77.854 97.7217C77.8142 97.7615 77.7668 97.7929 77.7145 97.8139C77.6623 97.835 77.6064 97.8452 77.5501 97.8441C77.4871 97.8436 77.4246 97.833 77.3649 97.8128C77.3126 97.7954 77.2657 97.7649 77.2287 97.7243L74.4816 94.2377L74.6628 94.126V97.4519C74.6644 97.5533 74.6257 97.6513 74.5552 97.7243C74.5185 97.7619 74.4743 97.7913 74.4255 97.8108C74.3767 97.8303 74.3244 97.8393 74.2719 97.8373C74.221 97.8391 74.1704 97.8299 74.1234 97.8104C74.0764 97.7909 74.0342 97.7615 73.9995 97.7243C73.9308 97.6503 73.8932 97.5528 73.8946 97.4519V93.3892C73.8935 93.3329 73.9038 93.2769 73.9248 93.2247C73.9458 93.1725 73.9772 93.1251 74.017 93.0853C74.0568 93.0454 74.1042 93.0141 74.1565 92.9931C74.2087 92.972 74.2646 92.9618 74.3209 92.9629C74.3903 92.964 74.4591 92.9773 74.5238 93.0024C74.5865 93.0222 74.6407 93.0625 74.6777 93.1168L77.3404 96.5135L77.2219 96.5979V93.3551C77.2199 93.2541 77.2575 93.1563 77.3267 93.0827C77.3606 93.0436 77.4024 93.0122 77.4494 92.9906C77.4963 92.969 77.5474 92.9577 77.5991 92.9574Z" fill="#010101"/>
<path id="Vector_26" d="M80.8219 94.0606L79.3114 97.6112C79.2831 97.6932 79.231 97.7648 79.1616 97.8169C79.0979 97.8644 79.0205 97.8902 78.941 97.8904C78.8896 97.8949 78.8378 97.8877 78.7895 97.8696C78.7412 97.8515 78.6976 97.8227 78.6618 97.7855C78.5998 97.7139 78.5673 97.6214 78.5705 97.5268C78.5705 97.4805 78.5778 97.4345 78.5923 97.3906L80.3315 93.2107C80.3658 93.123 80.4256 93.0476 80.5031 92.9942C80.5754 92.9438 80.6635 92.9215 80.751 92.9315C80.8348 92.9315 80.9166 92.9571 80.9853 93.0051C81.0589 93.0547 81.1143 93.1268 81.1433 93.2107L82.8621 97.3157C82.8838 97.3689 82.8958 97.4257 82.8975 97.4832C82.8985 97.5358 82.8893 97.588 82.8701 97.637C82.851 97.686 82.8224 97.7308 82.786 97.7687C82.7496 97.8067 82.706 97.8371 82.6578 97.8582C82.6097 97.8793 82.5578 97.8907 82.5052 97.8918C82.4231 97.892 82.3432 97.8652 82.2778 97.8155C82.208 97.7606 82.154 97.6882 82.1212 97.6058L80.623 94.1042L80.8219 94.0606ZM79.528 96.7586L79.9121 95.9551H81.7997L81.9359 96.7586H79.528Z" fill="#010101"/>
<path id="Vector_27" d="M87.2047 92.9574C87.2555 92.9557 87.3062 92.9649 87.3532 92.9844C87.4001 93.0039 87.4424 93.0332 87.4771 93.0705C87.5458 93.1444 87.5833 93.242 87.5819 93.3429V97.4178C87.5831 97.4741 87.5728 97.53 87.5518 97.5823C87.5307 97.6345 87.4994 97.6819 87.4596 97.7217C87.4198 97.7615 87.3723 97.7929 87.3201 97.8139C87.2679 97.835 87.2119 97.8452 87.1557 97.8441C87.0926 97.8436 87.0301 97.833 86.9704 97.8128C86.9181 97.7957 86.8711 97.7652 86.8342 97.7243L84.0872 94.2377L84.2683 94.126V97.4519C84.27 97.5533 84.2313 97.6513 84.1607 97.7243C84.124 97.7618 84.0798 97.7912 84.031 97.8107C83.9822 97.8302 83.9299 97.8392 83.8774 97.8373C83.8266 97.8391 83.776 97.8299 83.729 97.8104C83.682 97.7909 83.6397 97.7615 83.605 97.7243C83.5359 97.6506 83.4982 97.5529 83.5002 97.4519V93.3892C83.4985 93.3328 83.5086 93.2768 83.5297 93.2245C83.5508 93.1722 83.5825 93.1249 83.6227 93.0854C83.6622 93.0452 83.7095 93.0135 83.7618 92.9924C83.8141 92.9713 83.8701 92.9612 83.9265 92.9629C83.9959 92.964 84.0646 92.9773 84.1294 93.0024C84.192 93.0222 84.2462 93.0625 84.2833 93.1168L86.9459 96.5135L86.8261 96.5979V93.3551C86.8247 93.2542 86.8622 93.1566 86.9309 93.0827C86.9651 93.0437 87.0072 93.0124 87.0544 92.9908C87.1016 92.9692 87.1528 92.9578 87.2047 92.9574Z" fill="#010101"/>
<path id="Vector_28" d="M89.5025 97.4301C89.5032 97.4875 89.4914 97.5445 89.4678 97.5969C89.4443 97.6494 89.4097 97.6961 89.3663 97.7338C89.284 97.813 89.1741 97.857 89.0599 97.8564C89.0026 97.8601 88.9451 97.8516 88.8913 97.8316C88.8374 97.8116 88.7884 97.7805 88.7474 97.7403C88.7064 97.7 88.6744 97.6516 88.6534 97.5982C88.6323 97.5447 88.6228 97.4875 88.6254 97.4301V93.3892C88.6243 93.3325 88.635 93.2763 88.6568 93.224C88.6786 93.1717 88.7111 93.1245 88.7521 93.0854C88.7947 93.0445 88.8451 93.0125 88.9003 92.9914C88.9555 92.9704 89.0144 92.9607 89.0735 92.9629C89.1286 92.9627 89.1832 92.9735 89.2342 92.9945C89.2851 93.0155 89.3314 93.0464 89.3704 93.0854C89.4132 93.1237 89.4474 93.1705 89.4708 93.2228C89.4943 93.2751 89.5065 93.3318 89.5066 93.3892L89.5025 97.4301Z" fill="#010101"/>
<path id="Vector_29" d="M93.6666 92.9424C93.7794 92.9453 93.8864 92.9923 93.9649 93.0733C94.0433 93.1543 94.0869 93.2628 94.0861 93.3755C94.0862 93.4193 94.0802 93.4628 94.0684 93.5049C94.0571 93.5534 94.0372 93.5995 94.0098 93.6411L92.4232 95.9129L92.5485 95.4307V97.4369C92.5499 97.4931 92.5398 97.549 92.519 97.6012C92.4982 97.6534 92.467 97.7008 92.4273 97.7406C92.3908 97.7792 92.3469 97.81 92.2982 97.831C92.2495 97.8521 92.197 97.863 92.144 97.8632C92.0887 97.8644 92.0338 97.8541 91.9827 97.833C91.9316 97.8119 91.8854 97.7804 91.8471 97.7406C91.8068 97.7012 91.7751 97.6538 91.754 97.6016C91.7329 97.5493 91.7229 97.4932 91.7245 97.4369V95.4798L91.7803 95.7031L90.2699 93.697C90.2278 93.6449 90.1951 93.5859 90.1732 93.5226C90.1554 93.4732 90.1457 93.4213 90.1446 93.3687C90.1433 93.3095 90.156 93.2508 90.1815 93.1973C90.2071 93.1439 90.2448 93.0972 90.2917 93.0609C90.3747 92.9877 90.4807 92.9457 90.5913 92.9424C90.6602 92.9448 90.7274 92.9638 90.7872 92.998C90.847 93.0322 90.8976 93.0804 90.9346 93.1386L92.2761 94.9908L92.0813 94.9622L93.318 93.1522C93.3536 93.0906 93.4043 93.0391 93.4653 93.0024C93.5262 92.9657 93.5955 92.9451 93.6666 92.9424Z" fill="#010101"/>
</g>
<defs>
<clipPath id="clip0_201_42">
<rect width="117" height="117" fill="white"/>
</clipPath>
</defs>
</svg>
