<svg width="217" height="217" viewBox="0 0 217 217" fill="none" xmlns="http://www.w3.org/2000/svg">
<g id="Frame" clip-path="url(#clip0_337_2)">
<path id="Vector" d="M108.5 216C167.871 216 216 167.871 216 108.5C216 49.1294 167.871 1 108.5 1C49.1294 1 1 49.1294 1 108.5C1 167.871 49.1294 216 108.5 216Z" fill="white" stroke="#E4B4B4" stroke-width="2"/>
<path id="Vector_2" d="M102.274 68.35C100.774 68.35 99.4992 68.8 98.4492 69.7C97.5492 70.75 97.0992 72.025 97.0992 73.525V183.325C97.0992 184.825 97.5492 186.025 98.4492 186.925C99.4992 187.975 100.774 188.5 102.274 188.5H112.849C114.349 188.5 115.549 187.975 116.449 186.925C117.349 186.025 117.799 184.825 117.799 183.325V73.525C117.799 72.025 117.349 70.75 116.449 69.7C115.549 68.8 114.349 68.35 112.849 68.35H102.274ZM100.249 31C98.7492 31 97.4742 31.45 96.4242 32.35C95.5242 33.4 95.0742 34.675 95.0742 36.175V50.35C95.0742 52 95.5242 53.275 96.4242 54.175C97.4742 55.225 98.7492 55.75 100.249 55.75H114.649C116.149 55.75 117.349 55.225 118.249 54.175C119.299 53.275 119.824 52 119.824 50.35V36.175C119.824 34.675 119.299 33.4 118.249 32.35C117.349 31.45 116.149 31 114.649 31H100.249Z" fill="#E4B4B4"/>
</g>
<defs>
<clipPath id="clip0_337_2">
<rect width="217" height="217" fill="white"/>
</clipPath>
</defs>
</svg>
