<svg width="21" height="21" viewBox="0 0 21 21" fill="none" xmlns="http://www.w3.org/2000/svg">
<g id="bi:instagram" clip-path="url(#clip0_201_102)">
<path id="Vector" d="M10.5 0C7.65056 0 7.29225 0.013125 6.17269 0.063C5.05312 0.1155 4.29056 0.291375 3.6225 0.55125C2.92175 0.814825 2.28702 1.22827 1.76269 1.76269C1.2286 2.28729 0.815203 2.92194 0.55125 3.6225C0.291375 4.28925 0.114188 5.05312 0.063 6.16875C0.013125 7.29094 0 7.64794 0 10.5013C0 13.3521 0.013125 13.7091 0.063 14.8286C0.1155 15.9469 0.291375 16.7094 0.55125 17.3775C0.820312 18.0679 1.17863 18.6532 1.76269 19.2373C2.34544 19.8214 2.93081 20.181 3.62119 20.4487C4.29056 20.7086 5.05181 20.8858 6.17006 20.937C7.29094 20.9869 7.64794 21 10.5 21C13.3521 21 13.7078 20.9869 14.8286 20.937C15.9456 20.8845 16.7108 20.7086 17.3788 20.4487C18.0791 20.185 18.7134 19.7716 19.2373 19.2373C19.8214 18.6532 20.1797 18.0679 20.4487 17.3775C20.7073 16.7094 20.8845 15.9469 20.937 14.8286C20.9869 13.7091 21 13.3521 21 10.5C21 7.64794 20.9869 7.29094 20.937 6.17006C20.8845 5.05313 20.7073 4.28925 20.4487 3.6225C20.1848 2.92192 19.7714 2.28726 19.2373 1.76269C18.7131 1.22807 18.0784 0.814597 17.3775 0.55125C16.7081 0.291375 15.9443 0.114188 14.8273 0.063C13.7064 0.013125 13.3507 0 10.4974 0H10.5013H10.5ZM9.55894 1.89263H10.5013C13.3048 1.89263 13.6369 1.90181 14.7433 1.953C15.7671 1.99894 16.3236 2.17088 16.6937 2.31394C17.1833 2.50425 17.5337 2.73263 17.9012 3.10013C18.2687 3.46762 18.4958 3.81675 18.6861 4.30763C18.8304 4.67644 19.0011 5.23294 19.047 6.25669C19.0982 7.36313 19.1087 7.69519 19.1087 10.4974C19.1087 13.2996 19.0982 13.6329 19.047 14.7394C19.0011 15.7631 18.8291 16.3183 18.6861 16.6884C18.5177 17.1443 18.249 17.5566 17.8999 17.8946C17.5324 18.2621 17.1833 18.4892 16.6924 18.6795C16.3249 18.8239 15.7684 18.9945 14.7433 19.0417C13.6369 19.0916 13.3048 19.1034 10.5013 19.1034C7.69781 19.1034 7.36444 19.0916 6.258 19.0417C5.23425 18.9945 4.67906 18.8239 4.30894 18.6795C3.85284 18.5114 3.44023 18.2432 3.10144 17.8946C2.75199 17.556 2.48289 17.1434 2.31394 16.6871C2.17088 16.3183 1.99894 15.7618 1.953 14.7381C1.90313 13.6316 1.89263 13.2996 1.89263 10.4948C1.89263 7.69125 1.90313 7.3605 1.953 6.25406C2.00025 5.23031 2.17088 4.67381 2.31525 4.30369C2.50556 3.81413 2.73394 3.46369 3.10144 3.09619C3.46894 2.72869 3.81806 2.50163 4.30894 2.31131C4.67906 2.16694 5.23425 1.99631 6.258 1.94906C7.22662 1.90444 7.602 1.89131 9.55894 1.89V1.89263ZM16.1057 3.63562C15.9402 3.63562 15.7764 3.66822 15.6235 3.73154C15.4706 3.79486 15.3317 3.88767 15.2147 4.00467C15.0977 4.12167 15.0049 4.26057 14.9416 4.41344C14.8783 4.56631 14.8457 4.73016 14.8457 4.89563C14.8457 5.06109 14.8783 5.22494 14.9416 5.37781C15.0049 5.53068 15.0977 5.66958 15.2147 5.78658C15.3317 5.90358 15.4706 5.99639 15.6235 6.05971C15.7764 6.12303 15.9402 6.15562 16.1057 6.15562C16.4399 6.15562 16.7603 6.02288 16.9966 5.78658C17.2329 5.55028 17.3657 5.2298 17.3657 4.89563C17.3657 4.56145 17.2329 4.24097 16.9966 4.00467C16.7603 3.76837 16.4399 3.63562 16.1057 3.63562ZM10.5013 5.10825C9.78609 5.09709 9.0758 5.22832 8.41178 5.49431C7.74777 5.7603 7.1433 6.15572 6.63357 6.65756C6.12384 7.15939 5.71904 7.75762 5.44273 8.4174C5.16642 9.07719 5.02412 9.78535 5.02412 10.5007C5.02412 11.216 5.16642 11.9241 5.44273 12.5839C5.71904 13.2437 6.12384 13.8419 6.63357 14.3438C7.1433 14.8456 7.74777 15.241 8.41178 15.507C9.0758 15.773 9.78609 15.9042 10.5013 15.8931C11.9169 15.871 13.267 15.2931 14.2603 14.2843C15.2535 13.2754 15.8102 11.9164 15.8102 10.5007C15.8102 9.0849 15.2535 7.72592 14.2603 6.71705C13.267 5.70818 11.9169 5.13034 10.5013 5.10825ZM10.5013 6.99956C11.4297 6.99956 12.32 7.36836 12.9765 8.02482C13.633 8.68128 14.0017 9.57163 14.0017 10.5C14.0017 11.4284 13.633 12.3187 12.9765 12.9752C12.32 13.6316 11.4297 14.0004 10.5013 14.0004C9.57294 14.0004 8.68259 13.6316 8.02613 12.9752C7.36967 12.3187 7.00087 11.4284 7.00087 10.5C7.00087 9.57163 7.36967 8.68128 8.02613 8.02482C8.68259 7.36836 9.57294 6.99956 10.5013 6.99956Z" fill="#FAFAFC"/>
</g>
<defs>
<clipPath id="clip0_201_102">
<rect width="21" height="21" fill="white"/>
</clipPath>
</defs>
</svg>
