<svg width="21" height="18" viewBox="0 0 21 18" fill="none" xmlns="http://www.w3.org/2000/svg">
<g id="material-symbols:mail-outline" clip-path="url(#clip0_201_104)">
<path id="Vector" d="M2.1 18C1.5225 18 1.02795 17.7795 0.616352 17.3385C0.204752 16.8975 -0.000698217 16.368 1.78268e-06 15.75V2.25C1.78268e-06 1.63125 0.205802 1.10138 0.617402 0.660377C1.029 0.219377 1.5232 -0.00074809 2.1 1.91002e-06H18.9C19.4775 1.91002e-06 19.972 0.220502 20.3836 0.661502C20.7952 1.1025 21.0007 1.632 21 2.25V15.75C21 16.3687 20.7942 16.8986 20.3826 17.3396C19.971 17.7806 19.4768 18.0007 18.9 18H2.1ZM10.5 10.125L2.1 4.5V15.75H18.9V4.5L10.5 10.125ZM10.5 7.875L18.9 2.25H2.1L10.5 7.875ZM2.1 4.5V2.25V15.75V4.5Z" fill="#FAFAFC"/>
</g>
<defs>
<clipPath id="clip0_201_104">
<rect width="21" height="18" fill="white"/>
</clipPath>
</defs>
</svg>
