<svg width="94" height="83" viewBox="0 0 94 83" fill="none" xmlns="http://www.w3.org/2000/svg">
<g id="Group 116">
<path id="Vector" d="M29.0622 82.3592L6.70958 28.1482L64.5734 36.1236L29.0622 82.3592Z" fill="#EE8434"/>
<g id="Group">
<g id="Group_2">
<path id="Vector_2" d="M23.1024 37.643C27.0039 31.7351 32.5942 26.942 38.8937 23.8288C44.9973 20.8287 51.984 20.7141 58.6312 20.0118C68.2171 17.6136 76.6937 11.9383 82.0714 3.61157" stroke="#243B75" stroke-width="3.61" stroke-miterlimit="10" stroke-linecap="round"/>
</g>
<g id="Group_3">
<path id="Vector_3" d="M27.8519 45.87C31.7837 40.4661 36.5598 35.6195 42.6628 32.6186C48.57 29.7308 54.9075 28.9452 61.2753 28.6644C71.7045 26.8226 81.1599 20.5806 86.8162 11.8304" stroke="#243B75" stroke-width="3.61" stroke-miterlimit="10" stroke-linecap="round"/>
</g>
<g id="Group_4">
<path id="Vector_4" d="M32.7186 54.2937C36.9816 47.6538 43.1592 42.5204 50.5811 39.5418C56.1268 37.385 61.5979 37.3607 67.2346 36.7185C77.272 35.1029 85.9963 28.4994 91.683 20.2541" stroke="#243B75" stroke-width="3.61" stroke-miterlimit="10" stroke-linecap="round"/>
</g>
</g>
</g>
</svg>
