<svg width="70" height="56" viewBox="0 0 70 56" fill="none" xmlns="http://www.w3.org/2000/svg">
<g id="octicon:book-24">
<path id="Vector" d="M0 2.21053C0 1.62426 0.230468 1.06201 0.640704 0.647452C1.05094 0.232898 1.60734 4.51563e-06 2.1875 4.51563e-06H24.0537C28.6213 4.51563e-06 32.6433 2.3579 34.9942 5.936C36.1905 4.10954 37.8163 2.6113 39.7261 1.57539C41.6359 0.539471 43.77 -0.0018037 45.9375 4.51563e-06H67.8125C68.3927 4.51563e-06 68.9491 0.232898 69.3593 0.647452C69.7695 1.06201 70 1.62426 70 2.21053V46.6067C69.9992 46.8981 69.9417 47.1864 69.8305 47.4552C69.7194 47.724 69.557 47.968 69.3524 48.1733C69.1479 48.3786 68.9053 48.5412 68.6386 48.6517C68.3719 48.7621 68.0862 48.8184 67.7979 48.8173L45.3921 48.664C44.233 48.6557 43.0839 48.8802 42.0114 49.3244C40.9389 49.7687 39.9644 50.4238 39.1446 51.2518L36.5488 53.8779C36.3456 54.0833 36.1044 54.2463 35.8389 54.3574C35.5734 54.4686 35.2888 54.5258 35.0015 54.5258C34.7141 54.5258 34.4295 54.4686 34.164 54.3574C33.8985 54.2463 33.6573 54.0833 33.4542 53.8779L30.8233 51.2223C30.0114 50.4007 29.0471 49.7489 27.9855 49.3044C26.924 48.8598 25.7862 48.6312 24.6371 48.6316H2.1875C1.60734 48.6316 1.05094 48.3987 0.640704 47.9841C0.230468 47.5696 0 47.0073 0 46.4211L0 2.21053ZM37.1875 47.1048C39.5302 45.2325 42.4345 44.2231 45.4212 44.2429L65.625 44.3815V4.42106H45.9375C43.6169 4.42106 41.3913 5.35263 39.7503 7.01085C38.1094 8.66907 37.1875 10.9181 37.1875 13.2632V47.1048ZM32.8037 13.2543C32.8014 10.9108 31.8785 8.66403 30.2378 7.00772C28.5972 5.35142 26.3729 4.42106 24.0537 4.42106H4.375V44.2105H24.6371C27.6062 44.2105 30.4879 45.2303 32.8125 47.0989L32.8037 13.2543Z" fill="#19223F"/>
</g>
</svg>
