<svg width="56" height="56" viewBox="0 0 56 56" fill="none" xmlns="http://www.w3.org/2000/svg">
<g id="icon-park-outline:english" clip-path="url(#clip0_201_168)">
<g id="Group">
<path id="Vector" d="M49.0008 2.80005H7.00078C4.68119 2.80005 2.80078 4.68045 2.80078 7.00005V49.0001C2.80078 51.3196 4.68119 53.2001 7.00078 53.2001H49.0008C51.3204 53.2001 53.2008 51.3196 53.2008 49.0001V7.00005C53.2008 4.68045 51.3204 2.80005 49.0008 2.80005Z" stroke="#19223F" stroke-width="4" stroke-linecap="round" stroke-linejoin="round"/>
<path id="Vector_2" d="M23.8016 18.2H12.6016V37.8H23.1016M12.6016 28H23.1016M30.8016 21V37.8V28.7C30.8016 27.0291 31.4653 25.4267 32.6468 24.2452C33.8283 23.0637 35.4307 22.4 37.1016 22.4C38.7724 22.4 40.3749 23.0637 41.5563 24.2452C42.7378 25.4267 43.4016 27.0291 43.4016 28.7V37.8" stroke="#19223F" stroke-width="4" stroke-linecap="round" stroke-linejoin="round"/>
</g>
</g>
<defs>
<clipPath id="clip0_201_168">
<rect width="56" height="56" fill="white"/>
</clipPath>
</defs>
</svg>
