<svg width="72" height="56" viewBox="0 0 72 56" fill="none" xmlns="http://www.w3.org/2000/svg">
<g id="arcticons:network-speed" clip-path="url(#clip0_201_164)">
<path id="Vector" d="M54.6146 25.8623C51.9826 23.0635 48.7725 20.8931 45.2157 19.5074C41.6588 18.1218 37.8439 17.5554 34.0457 17.8491C30.2476 18.1428 26.5608 19.2893 23.2512 21.206C19.9415 23.1226 17.0914 25.7617 14.9062 28.933" stroke="#19223F" stroke-width="3" stroke-linecap="round" stroke-linejoin="round"/>
<path id="Vector_2" d="M70.1504 19.6408C66.3054 14.0613 61.1939 9.5062 55.2489 6.36128C49.304 3.21636 42.7009 1.57434 35.999 1.57434C29.2971 1.57434 22.694 3.21636 16.7491 6.36128C10.8042 9.5062 5.69265 14.0613 1.84766 19.6408" stroke="#19223F" stroke-width="3" stroke-linecap="round" stroke-linejoin="round"/>
<path id="Vector_3" d="M70.1511 19.6389L32.5268 34.706C31.1342 35.2389 29.8803 36.0893 28.8615 37.1918C27.8428 38.2943 27.0862 39.6195 26.6501 41.0656C26.214 42.5118 26.1098 44.0403 26.3457 45.5337C26.5816 47.0271 27.1512 48.4457 28.0107 49.6804C28.8703 50.915 29.9969 51.933 31.3039 52.656C32.611 53.3789 34.0638 53.7877 35.5506 53.8508C37.0374 53.9139 38.5186 53.6297 39.8804 53.02C41.2422 52.4103 42.4484 51.4913 43.4062 50.3338L43.4325 50.3694L70.1511 19.6389Z" stroke="#19223F" stroke-width="3" stroke-linecap="round" stroke-linejoin="round"/>
</g>
<defs>
<clipPath id="clip0_201_164">
<rect width="72" height="56" fill="white"/>
</clipPath>
</defs>
</svg>
