<svg width="114" height="173" viewBox="0 0 114 173" fill="none" xmlns="http://www.w3.org/2000/svg">
<g id="Frame" clip-path="url(#clip0_382_27)">
<path id="Vector" d="M51.5026 133.148C50.0446 133.148 48.8296 132.743 47.8576 131.933C46.8856 130.961 46.3996 129.665 46.3996 128.045C46.3996 126.425 46.3996 124.805 46.3996 123.185C46.3996 121.565 46.3996 119.945 46.3996 118.325C46.7236 111.359 48.2626 105.203 51.0166 99.8572C53.7706 94.5112 57.0916 89.6512 60.9796 85.2772C65.0296 80.9032 69.0796 76.7722 73.1296 72.8842C77.1796 68.8342 80.5816 64.7842 83.3356 60.7342C86.2516 56.6842 88.0336 52.3912 88.6816 47.8552C89.3296 42.0232 88.1956 37.1632 85.2796 33.2752C82.3636 29.2252 78.3946 26.1472 73.3726 24.0412C68.3506 21.9352 63.1666 20.8822 57.8206 20.8822C49.2346 20.8822 41.8636 23.1502 35.7076 27.6862C29.7136 32.0602 25.7446 39.5122 23.8006 50.0422C23.3146 51.9862 22.5046 53.3632 21.3706 54.1732C20.2366 54.9832 18.9406 55.3882 17.4826 55.3882H5.81866C4.36066 55.3882 3.06466 54.9022 1.93066 53.9302C0.958656 52.9582 0.472656 51.6622 0.472656 50.0422C0.634656 43.4002 2.09266 37.0822 4.84666 31.0882C7.60066 25.0942 11.4886 19.8292 16.5106 15.2932C21.6946 10.7572 27.7696 7.19321 34.7356 4.60122C41.8636 1.84721 49.8016 0.470215 58.5496 0.470215C68.4316 0.470215 76.8556 1.84721 83.8216 4.60122C90.9496 7.19321 96.6196 10.7572 100.832 15.2932C105.206 19.6672 108.365 24.5272 110.309 29.8732C112.253 35.2192 113.063 40.5652 112.739 45.9112C112.253 52.3912 110.633 58.2232 107.879 63.4072C105.125 68.4292 101.804 73.1272 97.9156 77.5012C94.0276 81.7132 90.0586 85.9252 86.0086 90.1372C82.1206 94.1872 78.7186 98.4802 75.8026 103.016C73.0486 107.39 71.5096 112.169 71.1856 117.353C71.0236 119.135 70.8616 120.917 70.6996 122.699C70.6996 124.319 70.6996 125.939 70.6996 127.559C70.3756 129.341 69.7276 130.718 68.7556 131.69C67.7836 132.662 66.4066 133.148 64.6246 133.148H51.5026ZM49.5586 173C47.9386 173 46.5616 172.514 45.4276 171.542C44.4556 170.408 43.9696 169.031 43.9696 167.411V152.588C43.9696 150.968 44.4556 149.672 45.4276 148.7C46.5616 147.566 47.9386 146.999 49.5586 146.999H65.3536C67.1356 146.999 68.5126 147.566 69.4846 148.7C70.6186 149.672 71.1856 150.968 71.1856 152.588V167.411C71.1856 169.031 70.6186 170.408 69.4846 171.542C68.5126 172.514 67.1356 173 65.3536 173H49.5586Z" fill="#19223F"/>
</g>
<defs>
<clipPath id="clip0_382_27">
<rect width="114" height="173" fill="white"/>
</clipPath>
</defs>
</svg>
