<svg width="21" height="20" viewBox="0 0 21 20" fill="none" xmlns="http://www.w3.org/2000/svg">
<g id="ri:telegram-line" clip-path="url(#clip0_201_106)">
<path id="Vector" d="M10.4995 18C12.7272 18 14.8636 17.1571 16.4389 15.6569C18.0141 14.1566 18.8991 12.1217 18.8991 10C18.8991 7.87827 18.0141 5.84344 16.4389 4.34315C14.8636 2.84285 12.7272 2 10.4995 2C8.27177 2 6.1353 2.84285 4.56008 4.34315C2.98485 5.84344 2.0999 7.87827 2.0999 10C2.0999 12.1217 2.98485 14.1566 4.56008 15.6569C6.1353 17.1571 8.27177 18 10.4995 18ZM10.4995 20C4.70062 20 0 15.523 0 10C0 4.477 4.70062 0 10.4995 0C16.2983 0 20.999 4.477 20.999 10C20.999 15.523 16.2983 20 10.4995 20ZM7.23414 11.17L4.61137 10.391C4.0444 10.226 4.04125 9.854 4.73841 9.587L14.9576 5.827C15.5497 5.597 15.8878 5.888 15.6957 6.617L13.9549 14.437C13.8331 14.994 13.4813 15.127 12.9931 14.87L10.3147 12.982L9.0663 14.13C8.9382 14.248 8.83426 14.349 8.63687 14.374C8.44053 14.4 8.27884 14.344 8.16019 14.034L7.24674 11.163L7.23414 11.17Z" fill="#FAFAFC"/>
</g>
<defs>
<clipPath id="clip0_201_106">
<rect width="21" height="20" fill="white"/>
</clipPath>
</defs>
</svg>
