<svg width="194" height="195" viewBox="0 0 194 195" fill="none" xmlns="http://www.w3.org/2000/svg">
<g id="Group">
<g id="Group_2">
<g id="Group_3">
<path id="Vector" d="M101.324 0.880859H91.9766V194.177H101.324V0.880859Z" fill="#EE8434"/>
</g>
<g id="Group_4">
<path id="Vector_2" d="M193.296 92.8555H0V102.202H193.296V92.8555Z" fill="#EE8434"/>
</g>
<g id="Group_5">
<path id="Vector_3" d="M31.5936 25.8775L24.9844 32.4868L161.664 169.166L168.273 162.557L31.5936 25.8775Z" fill="#EE8434"/>
</g>
<g id="Group_6">
<path id="Vector_4" d="M161.664 25.876L24.9844 162.556L31.5936 169.165L168.273 32.4852L161.664 25.876Z" fill="#EE8434"/>
</g>
<g id="Group_7">
<path id="Vector_5" d="M8.93288 56.7666L5.40625 65.4229L184.418 138.353L187.944 129.697L8.93288 56.7666Z" fill="#EE8434"/>
</g>
<g id="Group_8">
<path id="Vector_6" d="M128.813 6.30047L55.8828 185.312L64.5391 188.839L137.47 9.82709L128.813 6.30047Z" fill="#EE8434"/>
</g>
<g id="Group_9">
<path id="Vector_7" d="M184.629 57.0923L5.30859 129.269L8.79877 137.94L188.12 65.7635L184.629 57.0923Z" fill="#EE8434"/>
</g>
<g id="Group_10">
<path id="Vector_8" d="M64.8431 6.19387L56.1719 9.68311L128.329 189.004L137.001 185.515L64.8431 6.19387Z" fill="#EE8434"/>
</g>
</g>
</g>
</svg>
